<svg width="512" height="512" xmlns="http://www.w3.org/2000/svg" data-name="Ebene 1">
 <title>01-logo-sd-blue</title>

 <g>
  <title>Layer 1</title>
  <ellipse stroke="null" ry="173.96552" rx="199.99999" id="svg_7" cy="258.99998" cx="259.86205" fill="#ffffff"/>
  <path stroke="null" class="cls-1" d="m443.95622,93.27573l-141.07462,-81.44031a93.78922,93.78922 0 0 0 -93.78922,0l-141.04856,81.44031a93.78922,93.78922 0 0 0 -46.89461,81.23188l0,162.88061a93.78922,93.78922 0 0 0 46.89461,81.33609l141.04856,81.44031a93.78922,93.78922 0 0 0 93.78922,0l141.07462,-81.44031a93.78922,93.78922 0 0 0 46.89461,-81.23188l0,-162.98482a93.78922,93.78922 0 0 0 -46.89461,-81.23188zm-184.97318,292.83078c-49.03092,0 -88.18792,-17.63758 -114.63127,-46.21724l39.07884,-37.02069c20.84205,20.11258 43.74225,32.43544 76.90716,32.43544c25.40125,0 42.67409,-9.50918 42.67409,-25.03651s-8.46708,-22.56152 -57.13327,-31.73202c-60.25957,-11.64549 -89.25607,-32.09675 -89.25607,-78.314s40.30331,-74.43217 99.91157,-74.43217c49.49987,0 83.94135,18.23679 106.8155,44.10699l-40.90252,34.20701c-14.12049,-15.16259 -33.16491,-27.5115 -64.92298,-27.5115c-24.33309,0 -37.02069,8.10235 -37.02069,22.22283s9.1705,21.15468 55.02301,28.91834c63.46404,10.94208 92.12186,32.46149 92.12186,78.314c0,51.8446 -44.10699,80.05952 -108.63918,80.05952l-0.02605,0z" fill="#3e63dd" id="svg_11"/>
  <path transform="rotate(-43.3385 156.531 313.286)" stroke="null" id="svg_3" d="m118.72905,337.68025l37.80211,-48.7887l37.80211,48.7887l-75.60423,0z" fill="#ffffff"/>
  <path transform="rotate(140.245 349.674 195.059)" stroke="null" id="svg_6" d="m311.87191,219.45365l37.80211,-48.78871l37.80211,48.78871l-75.60422,0z" fill="#ffffff"/>
 </g>
</svg>